<svg width="76" height="55" viewBox="0 0 76 55" fill="none" xmlns="http://www.w3.org/2000/svg">
<path d="M3.42359 35.049C3.10159 35.049 2.81692 34.993 2.56959 34.881C2.32692 34.769 2.13559 34.6127 1.99559 34.412C1.85559 34.2113 1.78092 33.9873 1.77159 33.74H2.28959C2.31292 33.978 2.41792 34.188 2.60459 34.37C2.79126 34.5473 3.06426 34.636 3.42359 34.636C3.75492 34.636 4.01626 34.552 4.20759 34.384C4.40359 34.2113 4.50159 33.9943 4.50159 33.733C4.50159 33.523 4.44792 33.355 4.34059 33.229C4.23326 33.0983 4.10026 33.0027 3.94159 32.942C3.78292 32.8767 3.56359 32.8067 3.28359 32.732C2.95692 32.6433 2.69792 32.557 2.50659 32.473C2.31526 32.389 2.15192 32.2583 2.01659 32.081C1.88126 31.9037 1.81359 31.6633 1.81359 31.36C1.81359 31.108 1.87892 30.884 2.00959 30.688C2.14026 30.4873 2.32459 30.331 2.56259 30.219C2.80059 30.107 3.07359 30.051 3.38159 30.051C3.83426 30.051 4.19826 30.163 4.47359 30.387C4.75359 30.6063 4.91459 30.891 4.95659 31.241H4.42459C4.39192 31.0403 4.28226 30.863 4.09559 30.709C3.90892 30.5503 3.65692 30.471 3.33959 30.471C3.04559 30.471 2.80059 30.5503 2.60459 30.709C2.40859 30.863 2.31059 31.0753 2.31059 31.346C2.31059 31.5513 2.36426 31.717 2.47159 31.843C2.57892 31.969 2.71192 32.0647 2.87059 32.13C3.03392 32.1953 3.25326 32.2653 3.52859 32.34C3.84592 32.4287 4.10259 32.5173 4.29859 32.606C4.49459 32.69 4.66026 32.8207 4.79559 32.998C4.93092 33.1753 4.99859 33.4133 4.99859 33.712C4.99859 33.9407 4.93792 34.1577 4.81659 34.363C4.69526 34.5683 4.51559 34.734 4.27759 34.86C4.03959 34.986 3.75492 35.049 3.42359 35.049ZM6.47745 31.591V33.964C6.47745 34.1973 6.52178 34.3583 6.61045 34.447C6.69912 34.5357 6.85545 34.58 7.07945 34.58H7.52745V35H7.00245C6.65712 35 6.40045 34.9207 6.23245 34.762C6.06445 34.5987 5.98045 34.3327 5.98045 33.964V31.591H5.44845V31.178H5.98045V30.219H6.47745V31.178H7.52745V31.591H6.47745ZM9.90357 35.056C9.54423 35.056 9.2199 34.9767 8.93057 34.818C8.6459 34.6547 8.41957 34.426 8.25157 34.132C8.08823 33.8333 8.00657 33.4857 8.00657 33.089C8.00657 32.6923 8.09057 32.347 8.25857 32.053C8.42657 31.7543 8.65523 31.5257 8.94457 31.367C9.2339 31.2037 9.55823 31.122 9.91757 31.122C10.2769 31.122 10.6012 31.2037 10.8906 31.367C11.1846 31.5257 11.4132 31.7543 11.5766 32.053C11.7446 32.347 11.8286 32.6923 11.8286 33.089C11.8286 33.481 11.7446 33.8263 11.5766 34.125C11.4086 34.4237 11.1776 34.6547 10.8836 34.818C10.5896 34.9767 10.2629 35.056 9.90357 35.056ZM9.90357 34.629C10.1556 34.629 10.3889 34.573 10.6036 34.461C10.8182 34.3443 10.9909 34.1717 11.1216 33.943C11.2569 33.7097 11.3246 33.425 11.3246 33.089C11.3246 32.753 11.2592 32.4707 11.1286 32.242C10.9979 32.0087 10.8252 31.836 10.6106 31.724C10.3959 31.6073 10.1626 31.549 9.91057 31.549C9.65857 31.549 9.42523 31.6073 9.21057 31.724C8.9959 31.836 8.82323 32.0087 8.69257 32.242C8.56657 32.4707 8.50357 32.753 8.50357 33.089C8.50357 33.425 8.56657 33.7097 8.69257 33.943C8.82323 34.1717 8.99357 34.3443 9.20357 34.461C9.41823 34.573 9.65157 34.629 9.90357 34.629ZM12.3928 33.089C12.3928 32.6923 12.4721 32.347 12.6308 32.053C12.7894 31.7543 13.0088 31.5257 13.2888 31.367C13.5688 31.2037 13.8884 31.122 14.2478 31.122C14.7191 31.122 15.1064 31.2387 15.4098 31.472C15.7178 31.7053 15.9161 32.0227 16.0048 32.424H15.4798C15.4144 32.1487 15.2721 31.934 15.0528 31.78C14.8381 31.6213 14.5698 31.542 14.2478 31.542C13.9911 31.542 13.7601 31.6003 13.5548 31.717C13.3494 31.8337 13.1861 32.0087 13.0648 32.242C12.9481 32.4707 12.8898 32.753 12.8898 33.089C12.8898 33.425 12.9481 33.7097 13.0648 33.943C13.1861 34.1763 13.3494 34.3513 13.5548 34.468C13.7601 34.5847 13.9911 34.643 14.2478 34.643C14.5698 34.643 14.8381 34.566 15.0528 34.412C15.2721 34.2533 15.4144 34.034 15.4798 33.754H16.0048C15.9161 34.146 15.7178 34.461 15.4098 34.699C15.1018 34.937 14.7144 35.056 14.2478 35.056C13.8884 35.056 13.5688 34.9767 13.2888 34.818C13.0088 34.6547 12.7894 34.426 12.6308 34.132C12.4721 33.8333 12.3928 33.4857 12.3928 33.089ZM18.8697 35L17.2947 33.285V35H16.8047V29.82H17.2947V32.886L18.8347 31.178H19.5207L17.7077 33.082L19.5347 35H18.8697ZM21.883 31.108C22.1724 31.108 22.4314 31.1687 22.66 31.29C22.8934 31.4113 23.0754 31.598 23.206 31.85C23.3414 32.0973 23.409 32.4007 23.409 32.76V35H22.926V32.816C22.926 32.4007 22.821 32.0833 22.611 31.864C22.4057 31.6447 22.1234 31.535 21.764 31.535C21.3954 31.535 21.1014 31.6517 20.882 31.885C20.6627 32.1183 20.553 32.4613 20.553 32.914V35H20.063V29.82H20.553V31.829C20.6744 31.6003 20.8517 31.423 21.085 31.297C21.323 31.171 21.589 31.108 21.883 31.108ZM26.0607 35.056C25.7014 35.056 25.377 34.9767 25.0877 34.818C24.803 34.6547 24.5767 34.426 24.4087 34.132C24.2454 33.8333 24.1637 33.4857 24.1637 33.089C24.1637 32.6923 24.2477 32.347 24.4157 32.053C24.5837 31.7543 24.8124 31.5257 25.1017 31.367C25.391 31.2037 25.7154 31.122 26.0747 31.122C26.434 31.122 26.7584 31.2037 27.0477 31.367C27.3417 31.5257 27.5704 31.7543 27.7337 32.053C27.9017 32.347 27.9857 32.6923 27.9857 33.089C27.9857 33.481 27.9017 33.8263 27.7337 34.125C27.5657 34.4237 27.3347 34.6547 27.0407 34.818C26.7467 34.9767 26.42 35.056 26.0607 35.056ZM26.0607 34.629C26.3127 34.629 26.546 34.573 26.7607 34.461C26.9754 34.3443 27.148 34.1717 27.2787 33.943C27.414 33.7097 27.4817 33.425 27.4817 33.089C27.4817 32.753 27.4164 32.4707 27.2857 32.242C27.155 32.0087 26.9824 31.836 26.7677 31.724C26.553 31.6073 26.3197 31.549 26.0677 31.549C25.8157 31.549 25.5824 31.6073 25.3677 31.724C25.153 31.836 24.9804 32.0087 24.8497 32.242C24.7237 32.4707 24.6607 32.753 24.6607 33.089C24.6607 33.425 24.7237 33.7097 24.8497 33.943C24.9804 34.1717 25.1507 34.3443 25.3607 34.461C25.5754 34.573 25.8087 34.629 26.0607 34.629ZM29.2639 29.82V35H28.7739V29.82H29.2639ZM34.8185 31.108C35.2665 31.108 35.6305 31.2503 35.9105 31.535C36.1952 31.815 36.3375 32.2233 36.3375 32.76V35H35.8545V32.816C35.8545 32.4007 35.7542 32.0833 35.5535 31.864C35.3529 31.6447 35.0799 31.535 34.7345 31.535C34.3752 31.535 34.0882 31.654 33.8735 31.892C33.6589 32.13 33.5515 32.4753 33.5515 32.928V35H33.0685V32.816C33.0685 32.4007 32.9682 32.0833 32.7675 31.864C32.5669 31.6447 32.2915 31.535 31.9415 31.535C31.5822 31.535 31.2952 31.654 31.0805 31.892C30.8659 32.13 30.7585 32.4753 30.7585 32.928V35H30.2685V31.178H30.7585V31.836C30.8799 31.598 31.0525 31.4183 31.2765 31.297C31.5005 31.171 31.7502 31.108 32.0255 31.108C32.3569 31.108 32.6462 31.1873 32.8935 31.346C33.1455 31.5047 33.3275 31.738 33.4395 32.046C33.5422 31.7427 33.7172 31.5117 33.9645 31.353C34.2165 31.1897 34.5012 31.108 34.8185 31.108ZM43.9177 30.17V35H43.4277V31.143L41.7057 35H41.3487L39.6267 31.157V35H39.1367V30.17H39.6547L41.5237 34.356L43.3927 30.17H43.9177ZM48.3822 32.893C48.3822 33.061 48.3776 33.1893 48.3682 33.278H45.1972C45.2112 33.5673 45.2812 33.8147 45.4072 34.02C45.5332 34.2253 45.6989 34.3817 45.9042 34.489C46.1096 34.5917 46.3336 34.643 46.5762 34.643C46.8936 34.643 47.1596 34.566 47.3742 34.412C47.5936 34.258 47.7382 34.0503 47.8082 33.789H48.3262C48.2329 34.1623 48.0322 34.468 47.7242 34.706C47.4209 34.9393 47.0382 35.056 46.5762 35.056C46.2169 35.056 45.8949 34.9767 45.6102 34.818C45.3256 34.6547 45.1016 34.426 44.9382 34.132C44.7796 33.8333 44.7002 33.4857 44.7002 33.089C44.7002 32.6923 44.7796 32.3447 44.9382 32.046C45.0969 31.7473 45.3186 31.5187 45.6032 31.36C45.8879 31.2013 46.2122 31.122 46.5762 31.122C46.9402 31.122 47.2576 31.2013 47.5282 31.36C47.8036 31.5187 48.0136 31.7333 48.1582 32.004C48.3076 32.27 48.3822 32.5663 48.3822 32.893ZM47.8852 32.879C47.8899 32.5943 47.8316 32.3517 47.7102 32.151C47.5936 31.9503 47.4326 31.7987 47.2272 31.696C47.0219 31.5933 46.7979 31.542 46.5552 31.542C46.1912 31.542 45.8809 31.6587 45.6242 31.892C45.3676 32.1253 45.2252 32.4543 45.1972 32.879H47.8852ZM49.8107 31.591V33.964C49.8107 34.1973 49.8551 34.3583 49.9437 34.447C50.0324 34.5357 50.1887 34.58 50.4127 34.58H50.8607V35H50.3357C49.9904 35 49.7337 34.9207 49.5657 34.762C49.3977 34.5987 49.3137 34.3327 49.3137 33.964V31.591H48.7817V31.178H49.3137V30.219H49.8107V31.178H50.8607V31.591H49.8107ZM52.0538 31.857C52.1612 31.619 52.3245 31.4347 52.5438 31.304C52.7678 31.1733 53.0408 31.108 53.3628 31.108V31.619H53.2298C52.8752 31.619 52.5905 31.7147 52.3758 31.906C52.1612 32.0973 52.0538 32.417 52.0538 32.865V35H51.5638V31.178H52.0538V31.857ZM55.668 35.056C55.3086 35.056 54.9843 34.9767 54.695 34.818C54.4103 34.6547 54.184 34.426 54.016 34.132C53.8526 33.8333 53.771 33.4857 53.771 33.089C53.771 32.6923 53.855 32.347 54.023 32.053C54.191 31.7543 54.4196 31.5257 54.709 31.367C54.9983 31.2037 55.3226 31.122 55.682 31.122C56.0413 31.122 56.3656 31.2037 56.655 31.367C56.949 31.5257 57.1776 31.7543 57.341 32.053C57.509 32.347 57.593 32.6923 57.593 33.089C57.593 33.481 57.509 33.8263 57.341 34.125C57.173 34.4237 56.942 34.6547 56.648 34.818C56.354 34.9767 56.0273 35.056 55.668 35.056ZM55.668 34.629C55.92 34.629 56.1533 34.573 56.368 34.461C56.5826 34.3443 56.7553 34.1717 56.886 33.943C57.0213 33.7097 57.089 33.425 57.089 33.089C57.089 32.753 57.0236 32.4707 56.893 32.242C56.7623 32.0087 56.5896 31.836 56.375 31.724C56.1603 31.6073 55.927 31.549 55.675 31.549C55.423 31.549 55.1896 31.6073 54.975 31.724C54.7603 31.836 54.5876 32.0087 54.457 32.242C54.331 32.4707 54.268 32.753 54.268 33.089C54.268 33.425 54.331 33.7097 54.457 33.943C54.5876 34.1717 54.758 34.3443 54.968 34.461C55.1826 34.573 55.416 34.629 55.668 34.629ZM60.6871 30.506V32.333H62.5421V32.739H60.6871V34.594H62.7521V35H60.1971V30.1H62.7521V30.506H60.6871ZM65.6146 35L64.6276 33.46L63.6756 35H63.1576L64.3896 33.089L63.1716 31.178H63.7246L64.6976 32.697L65.6426 31.178H66.1536L64.9356 33.068L66.1676 35H65.6146ZM66.9723 30.457C66.8743 30.457 66.7903 30.422 66.7203 30.352C66.6503 30.282 66.6153 30.1957 66.6153 30.093C66.6153 29.9903 66.6503 29.9063 66.7203 29.841C66.7903 29.771 66.8743 29.736 66.9723 29.736C67.0703 29.736 67.1543 29.771 67.2243 29.841C67.2943 29.9063 67.3293 29.9903 67.3293 30.093C67.3293 30.1957 67.2943 30.282 67.2243 30.352C67.1543 30.422 67.0703 30.457 66.9723 30.457ZM67.2173 31.178V35H66.7273V31.178H67.2173ZM68.8589 31.591V33.964C68.8589 34.1973 68.9033 34.3583 68.9919 34.447C69.0806 34.5357 69.2369 34.58 69.4609 34.58H69.9089V35H69.3839C69.0386 35 68.7819 34.9207 68.6139 34.762C68.4459 34.5987 68.3619 34.3327 68.3619 33.964V31.591H67.8299V31.178H68.3619V30.219H68.8589V31.178H69.9089V31.591H68.8589ZM71.928 35.056C71.4894 35.056 71.13 34.9557 70.85 34.755C70.5747 34.5497 70.4207 34.272 70.388 33.922H70.892C70.9154 34.1367 71.0157 34.3117 71.193 34.447C71.375 34.5777 71.6177 34.643 71.921 34.643C72.187 34.643 72.3947 34.58 72.544 34.454C72.698 34.328 72.775 34.1717 72.775 33.985C72.775 33.8543 72.733 33.747 72.649 33.663C72.565 33.579 72.4577 33.5137 72.327 33.467C72.201 33.4157 72.0284 33.362 71.809 33.306C71.5244 33.2313 71.2934 33.1567 71.116 33.082C70.9387 33.0073 70.787 32.8977 70.661 32.753C70.5397 32.6037 70.479 32.4053 70.479 32.158C70.479 31.9713 70.535 31.7987 70.647 31.64C70.759 31.4813 70.9177 31.3553 71.123 31.262C71.3284 31.1687 71.5617 31.122 71.823 31.122C72.2337 31.122 72.565 31.227 72.817 31.437C73.069 31.6423 73.2044 31.927 73.223 32.291H72.733C72.719 32.067 72.6304 31.8873 72.467 31.752C72.3084 31.612 72.089 31.542 71.809 31.542C71.5617 31.542 71.361 31.6003 71.207 31.717C71.053 31.8337 70.976 31.9783 70.976 32.151C70.976 32.3003 71.0204 32.424 71.109 32.522C71.2024 32.6153 71.3167 32.69 71.452 32.746C71.5874 32.7973 71.7694 32.8557 71.998 32.921C72.2734 32.9957 72.4927 33.068 72.656 33.138C72.8194 33.208 72.9594 33.3107 73.076 33.446C73.1927 33.5813 73.2534 33.761 73.258 33.985C73.258 34.1903 73.202 34.3747 73.09 34.538C72.978 34.6967 72.8217 34.8227 72.621 34.916C72.4204 35.0093 72.1894 35.056 71.928 35.056Z" fill="white"/>
<path d="M11.5926 38.556V41.57H5.30061V44.826H10.0086V47.752H5.30061V54H1.53861V38.556H11.5926ZM17.0019 38.556V54H13.2399V38.556H17.0019ZM33.2141 54H29.4521L23.1601 44.474V54H19.3981V38.556H23.1601L29.4521 48.126V38.556H33.2141V54ZM41.3971 38.556C43.0251 38.556 44.4478 38.8787 45.6651 39.524C46.8824 40.1693 47.8211 41.0787 48.4811 42.252C49.1558 43.4107 49.4931 44.7527 49.4931 46.278C49.4931 47.7887 49.1558 49.1307 48.4811 50.304C47.8211 51.4773 46.8751 52.3867 45.6431 53.032C44.4258 53.6773 43.0104 54 41.3971 54H35.6111V38.556H41.3971ZM41.1551 50.744C42.5778 50.744 43.6851 50.3553 44.4771 49.578C45.2691 48.8007 45.6651 47.7007 45.6651 46.278C45.6651 44.8553 45.2691 43.748 44.4771 42.956C43.6851 42.164 42.5778 41.768 41.1551 41.768H39.3731V50.744H41.1551ZM55.0275 41.57V44.694H60.0655V47.598H55.0275V50.986H60.7255V54H51.2655V38.556H60.7255V41.57H55.0275ZM70.7138 54L67.5018 48.17H66.5998V54H62.8378V38.556H69.1518C70.3692 38.556 71.4032 38.7687 72.2538 39.194C73.1192 39.6193 73.7645 40.206 74.1898 40.954C74.6152 41.6873 74.8278 42.5087 74.8278 43.418C74.8278 44.4447 74.5345 45.3613 73.9478 46.168C73.3758 46.9747 72.5252 47.5467 71.3958 47.884L74.9598 54H70.7138ZM66.5998 45.508H68.9318C69.6212 45.508 70.1345 45.3393 70.4718 45.002C70.8238 44.6647 70.9998 44.188 70.9998 43.572C70.9998 42.9853 70.8238 42.5233 70.4718 42.186C70.1345 41.8487 69.6212 41.68 68.9318 41.68H66.5998V45.508Z" fill="white"/>
<path fill-rule="evenodd" clip-rule="evenodd" d="M2 5.72957C2 2.56522 4.56286 0 7.72431 0H14.5437C17.7051 0 20.268 2.56522 20.268 5.72957V19.1816C20.268 21.2623 19.1599 23.084 17.5021 24.0876L19.3471 27.3027H13.5855L12.1917 24.9112H7.72431C4.56286 24.9112 2 22.346 2 19.1816V5.72957ZM13.7971 6.4769H8.47095V18.4342H13.7971V6.4769Z" fill="white"/>
<path d="M22.1096 0H28.705L32.3014 16.6651L35.8977 0H42.4931L35.823 24.9112H28.7797L22.1096 0Z" fill="white"/>
<path d="M51.7267 0H45.2557V24.9112H51.7267V0Z" fill="white"/>
<path d="M62.354 0H55.8831V24.9112H62.354V15.663L66.3119 24.9112H73.3516L68.3217 13.1581L73.3855 0H66.4511L62.354 10.6459V0Z" fill="white"/>
</svg>
