<svg width="16" height="16" viewBox="0 0 16 16" fill="none" xmlns="http://www.w3.org/2000/svg">
<path d="M15.6343 13.8641L11.8937 10.1239C12.7443 8.86123 13.164 7.28359 12.9393 5.60252C12.5562 2.74313 10.2125 0.416195 7.34996 0.0538272C3.09403 -0.484647 -0.484724 3.09372 0.0538389 7.3492C0.416339 10.2126 2.74384 12.558 5.60384 12.9392C7.28509 13.1639 8.86321 12.7444 10.1257 11.8937L13.8663 15.6339C14.3545 16.122 15.146 16.122 15.6342 15.6339C16.1218 15.1452 16.1218 14.3516 15.6343 13.8641ZM2.47184 6.4993C2.47184 4.29391 4.26621 2.49972 6.47184 2.49972C8.67747 2.49972 10.4718 4.29391 10.4718 6.4993C10.4718 8.70469 8.67747 10.4989 6.47184 10.4989C4.26621 10.4989 2.47184 8.70531 2.47184 6.4993Z" fill="black"/>
</svg>
